name rise32.9588peak41.5061fall63.4684.mot
datacolumns 19
datarows 32
range 3.58665500000000 3.63831600000000
endheader
time	ground_force1_vx	ground_force1_vy	ground_force1_vz	ground_force1_px	ground_force1_py	ground_force1_pz	ground_force2_vx	ground_force2_vy	ground_force2_vz	ground_force2_px	ground_force2_py	ground_force2_pz	ground_torque1_x	ground_torque1_y	ground_torque1_z	ground_torque2_x	ground_torque2_y	ground_torque2_z	
3.58665500000000	-4.54557500000000	44.27583900000000	-11.10732300000000	0.25207700000000	0.00000000000000	0.07355100000000	-50.29051600000000	758.29567299999997	-47.31005900000000	0.08896900000000	0.00000000000000	-0.09026300000000	0.00000000000000	-6.56513100000000	0.00000000000000	0.00000000000000	-15.94083900000000	0.00000000000000	
3.58832400000000	-4.86627800000000	52.18847000000000	-12.46863000000000	0.25915400000000	0.00000000000000	0.07448600000000	-51.05581800000000	754.32469500000002	-46.77671300000000	0.08809900000000	0.00000000000000	-0.09011100000000	0.00000000000000	-7.47821500000000	0.00000000000000	0.00000000000000	-15.93191400000000	0.00000000000000	
3.58998600000000	-5.06647300000000	60.28054000000000	-13.69862100000000	0.26547800000000	0.00000000000000	0.07532300000000	-51.83287700000000	750.22748999999999	-46.22146400000000	0.08723000000000	0.00000000000000	-0.08995600000000	0.00000000000000	-8.32882000000000	0.00000000000000	0.00000000000000	-15.92540200000000	0.00000000000000	
3.59165500000000	-5.13251400000000	68.45509000000000	-14.76820300000000	0.27117800000000	0.00000000000000	0.07607900000000	-52.62013500000000	746.00090100000000	-45.64432600000000	0.08636500000000	0.00000000000000	-0.08979600000000	0.00000000000000	-9.09669400000000	0.00000000000000	0.00000000000000	-15.92107400000000	0.00000000000000	
3.59332000000000	-5.05664000000000	76.63725500000000	-15.65838600000000	0.27635500000000	0.00000000000000	0.07676500000000	-53.41592500000000	741.64173900000003	-45.04535400000000	0.08550300000000	0.00000000000000	-0.08963100000000	0.00000000000000	-9.76765300000000	0.00000000000000	0.00000000000000	-15.91868100000000	0.00000000000000	
3.59498700000000	-4.83681300000000	84.77684200000000	-16.36037400000000	0.28108700000000	0.00000000000000	0.07739400000000	-54.21848200000000	737.14679799999999	-44.42464600000000	0.08464700000000	0.00000000000000	-0.08946300000000	0.00000000000000	-10.33383500000000	0.00000000000000	0.00000000000000	-15.91795100000000	0.00000000000000	
3.59665300000000	-4.47612000000000	92.84842800000000	-16.87481500000000	0.28543900000000	0.00000000000000	0.07797200000000	-55.02594100000000	732.51287500000001	-43.78234600000000	0.08379800000000	0.00000000000000	-0.08928900000000	0.00000000000000	-10.79339700000000	0.00000000000000	0.00000000000000	-15.91859200000000	0.00000000000000	
3.59831900000000	-3.98185700000000	100.84940700000000	-17.21039800000000	0.28946100000000	0.00000000000000	0.07850700000000	-55.83634500000000	727.73679100000004	-43.11864400000000	0.08295600000000	0.00000000000000	-0.08911200000000	0.00000000000000	-11.14976300000000	0.00000000000000	0.00000000000000	-15.92029200000000	0.00000000000000	
3.59998700000000	-3.36443400000000	108.79648700000000	-17.38204000000000	0.29319500000000	0.00000000000000	0.07900400000000	-56.64764500000000	722.81540700000005	-42.43377700000000	0.08212300000000	0.00000000000000	-0.08892900000000	0.00000000000000	-11.41057700000000	0.00000000000000	0.00000000000000	-15.92272100000000	0.00000000000000	
3.60167300000000	-2.63621500000000	116.72120500000000	-17.40886800000000	0.29667700000000	0.00000000000000	0.07946900000000	-57.45770600000000	717.74564899999996	-41.72803100000000	0.08130100000000	0.00000000000000	-0.08874200000000	0.00000000000000	-11.58647400000000	0.00000000000000	0.00000000000000	-15.92552900000000	0.00000000000000	
3.60332500000000	-1.81040600000000	124.66499700000000	-17.31221300000000	0.29993500000000	0.00000000000000	0.07990400000000	-58.26431600000000	712.52453000000003	-41.00174300000000	0.08048900000000	0.00000000000000	-0.08855000000000	0.00000000000000	-11.68983000000000	0.00000000000000	0.00000000000000	-15.92835000000000	0.00000000000000	
3.60499200000000	-0.90007100000000	132.67430500000000	-17.11376900000000	0.30299300000000	0.00000000000000	0.08031300000000	-59.06518500000000	707.14917300000002	-40.25529900000000	0.07969000000000	0.00000000000000	-0.08835400000000	0.00000000000000	-11.73358000000000	0.00000000000000	0.00000000000000	-15.93080100000000	0.00000000000000	
3.60665300000000	0.08267400000000	140.79610900000000	-16.83403700000000	0.30587200000000	0.00000000000000	0.08069900000000	-59.85795600000000	701.61683100000005	-39.48913700000000	0.07890400000000	0.00000000000000	-0.08815300000000	0.00000000000000	-11.73018800000000	0.00000000000000	0.00000000000000	-15.93248400000000	0.00000000000000	
3.60832000000000	1.12723900000000	149.07414800000001	-16.49113000000000	0.30858800000000	0.00000000000000	0.08106400000000	-60.64021000000000	695.92491399999994	-38.70374700000000	0.07813300000000	0.00000000000000	-0.08794700000000	0.00000000000000	-11.69083400000000	0.00000000000000	0.00000000000000	-15.93298900000000	0.00000000000000	
3.60998500000000	2.22492800000000	157.54602000000000	-16.09996300000000	0.31115500000000	0.00000000000000	0.08141000000000	-61.40947200000000	690.07100800000001	-37.89967200000000	0.07737700000000	0.00000000000000	-0.08773600000000	0.00000000000000	-11.62484400000000	0.00000000000000	0.00000000000000	-15.93189000000000	0.00000000000000	
3.61165600000000	3.36908700000000	166.24120500000001	-15.67182800000000	0.31358700000000	0.00000000000000	0.08173900000000	-62.16322000000000	684.05289500000003	-37.07750600000000	0.07663800000000	0.00000000000000	-0.08752100000000	0.00000000000000	-11.53935400000000	0.00000000000000	0.00000000000000	-15.92875500000000	0.00000000000000	
3.61332300000000	4.55506600000000	175.18001699999999	-15.21431500000000	0.31589300000000	0.00000000000000	0.08205300000000	-62.89889200000000	677.86857899999995	-36.23789800000000	0.07591700000000	0.00000000000000	-0.08730000000000	0.00000000000000	-11.43920100000000	0.00000000000000	0.00000000000000	-15.92314100000000	0.00000000000000	
3.61498400000000	5.78003800000000	184.37337299999999	-14.73152300000000	0.31808400000000	0.00000000000000	0.08235300000000	-63.61389200000000	671.51629600000001	-35.38154700000000	0.07521400000000	0.00000000000000	-0.08707500000000	0.00000000000000	-11.32701200000000	0.00000000000000	0.00000000000000	-15.91459600000000	0.00000000000000	
3.61665400000000	7.04270400000000	193.82326599999999	-14.22449000000000	0.32016500000000	0.00000000000000	0.08264000000000	-64.30559900000000	664.99453300000005	-34.50920700000000	0.07453100000000	0.00000000000000	-0.08684500000000	0.00000000000000	-11.20343900000000	0.00000000000000	0.00000000000000	-15.90266400000000	0.00000000000000	
3.61832100000000	8.34293200000000	203.52376500000000	-13.69177500000000	0.32214500000000	0.00000000000000	0.08291500000000	-64.97137900000000	658.30204600000002	-33.62168600000000	0.07386800000000	0.00000000000000	-0.08660900000000	0.00000000000000	-11.06750500000000	0.00000000000000	0.00000000000000	-15.88688700000000	0.00000000000000	
3.61998500000000	9.68137100000000	213.46237099999999	-13.13011900000000	0.32402900000000	0.00000000000000	0.08318000000000	-65.60858800000000	651.43786499999999	-32.71984300000000	0.07322500000000	0.00000000000000	-0.08636900000000	0.00000000000000	-10.91700700000000	0.00000000000000	0.00000000000000	-15.86680100000000	0.00000000000000	
3.62165600000000	11.05907100000000	223.62156800000000	-12.53511100000000	0.32582200000000	0.00000000000000	0.08343400000000	-66.21458600000000	644.40130599999998	-31.80459100000000	0.07260500000000	0.00000000000000	-0.08612400000000	0.00000000000000	-10.74894100000000	0.00000000000000	0.00000000000000	-15.84194600000000	0.00000000000000	
3.62332100000000	12.47713500000000	233.98041200000000	-11.90183200000000	0.32752800000000	0.00000000000000	0.08367900000000	-66.78674200000000	637.19198200000005	-30.87689700000000	0.07200800000000	0.00000000000000	-0.08587400000000	0.00000000000000	-10.55990900000000	0.00000000000000	0.00000000000000	-15.81186400000000	0.00000000000000	
3.62498400000000	13.93642800000000	244.51603700000001	-11.22540400000000	0.32915100000000	0.00000000000000	0.08391500000000	-67.32244799999999	629.80980599999998	-29.93777900000000	0.07143300000000	0.00000000000000	-0.08561900000000	0.00000000000000	-10.34648500000000	0.00000000000000	0.00000000000000	-15.77609900000000	0.00000000000000	
3.62665800000000	15.43734700000000	255.20498599999999	-10.50145000000000	0.33069300000000	0.00000000000000	0.08414400000000	-67.81912900000000	622.25499700000000	-28.98830700000000	0.07088200000000	0.00000000000000	-0.08535900000000	0.00000000000000	-10.10551800000000	0.00000000000000	0.00000000000000	-15.73420400000000	0.00000000000000	
3.62832400000000	16.97966100000000	266.02429899999998	-9.72642600000000	0.33215900000000	0.00000000000000	0.08436500000000	-68.27424999999999	614.52809000000002	-28.02960400000000	0.07035600000000	0.00000000000000	-0.08509400000000	0.00000000000000	-9.83436000000000	0.00000000000000	0.00000000000000	-15.68574300000000	0.00000000000000	
3.62998500000000	18.56242800000000	276.95233300000001	-8.89783900000000	0.33354900000000	0.00000000000000	0.08457900000000	-68.68533300000000	606.62994400000002	-27.06284200000000	0.06985400000000	0.00000000000000	-0.08482400000000	0.00000000000000	-9.53101700000000	0.00000000000000	0.00000000000000	-15.63028700000000	0.00000000000000	
3.63166000000000	20.18395900000000	287.96930400000002	-8.01435100000000	0.33486600000000	0.00000000000000	0.08478600000000	-69.04996400000000	598.56174899999996	-26.08923900000000	0.06937800000000	0.00000000000000	-0.08454900000000	0.00000000000000	-9.19423200000000	0.00000000000000	0.00000000000000	-15.56742700000000	0.00000000000000	
3.63331900000000	21.84185000000000	299.05757000000000	-7.07578300000000	0.33611200000000	0.00000000000000	0.08498700000000	-69.36580700000000	590.32504400000005	-25.11005900000000	0.06892600000000	0.00000000000000	-0.08427000000000	0.00000000000000	-8.82349700000000	0.00000000000000	0.00000000000000	-15.49676700000000	0.00000000000000	
3.63498600000000	23.53304800000000	310.20168400000000	-6.08304300000000	0.33728800000000	0.00000000000000	0.08518300000000	-69.63061600000000	581.92173400000001	-24.12660900000000	0.06850100000000	0.00000000000000	-0.08398500000000	0.00000000000000	-8.41901300000000	0.00000000000000	0.00000000000000	-15.41793200000000	0.00000000000000	
3.63666100000000	25.25394200000000	321.38826599999999	-5.03799300000000	0.33839600000000	0.00000000000000	0.08537300000000	-69.84225000000001	573.35411399999998	-23.14022900000000	0.06810200000000	0.00000000000000	-0.08369500000000	0.00000000000000	-7.98161700000000	0.00000000000000	0.00000000000000	-15.33056900000000	0.00000000000000	
3.63831600000000	27.00048300000000	332.60574200000002	-3.94327700000000	0.33943600000000	0.00000000000000	0.08555800000000	-69.99868300000000	564.62489100000005	-22.15229300000000	0.06772900000000	0.00000000000000	-0.08340000000000	0.00000000000000	-7.51266600000000	0.00000000000000	0.00000000000000	-15.23434800000000	0.00000000000000	
